<svg width="203" height="164" viewBox="0 0 203 164" fill="none" xmlns="http://www.w3.org/2000/svg">
<path id="Vector" d="M194.058 102.029C187.816 94.3467 170.289 85.856 164.872 84.0521C164.327 83.881 164.234 83.1657 164.701 82.8391C164.887 82.7147 165.074 82.6058 165.277 82.5281C170.569 80.4598 177.9 78.4693 181.2 76.4322C182.772 75.4525 183.691 73.4931 183.737 71.8447C184.002 63.836 180.469 58.3932 175.628 52.375C172.266 48.2074 130.378 2.39465 127.779 0.38859C126.829 -0.35785 121.148 -0.0468331 120.665 1.47715C120.276 2.72122 121.257 5.14715 121.895 6.85774C122.829 9.31477 123.592 11.2586 124.448 13.5446C125.304 15.815 125.21 16.5304 122.813 16.9813C121.288 17.2612 121.039 17.3857 119.28 17.6967C116.914 18.101 113.272 19.5317 110.563 14.5554C110.018 13.5601 110.034 13.6535 108.695 10.6832C108.026 9.17481 106.827 5.83138 103.668 5.55147C101.582 5.38041 85.7047 11.694 83.868 12.3161C82.4359 12.7826 80.3968 13.4357 80.5213 16.0016C80.6147 18.4276 83.2298 24.4613 88.9113 22.1598C93.2541 20.4025 95.7135 20.7291 98.4842 22.4086C99.7917 23.1861 101.784 24.8501 101.691 25.8453C101.613 26.6384 100.85 27.3693 100.041 28.3956C97.2545 31.8324 97.4568 34.7404 99.1224 37.0108C103.917 43.5888 108.617 50.229 113.536 56.7137C115.996 59.9638 116.976 63.7116 114.439 66.7129C107.123 75.3903 88.4599 85.1406 84.3816 83.57C81.0973 82.2948 77.237 76.8365 74.1394 72.7311C68.7692 65.5777 66.1386 61.1768 58.3714 52.515C56.5502 50.4934 54.0441 49.8091 51.2423 49.9335H51.2267C50.9621 49.9335 50.7442 49.7936 50.6352 49.5914L0 144.467C3.50228 144.452 48.0357 144.218 50.5418 144.249C72.8008 144.467 95.0597 144.7 117.319 144.887C122.393 144.918 122.658 144.623 124.121 139.786C124.806 137.547 125.506 135.323 126.3 133.099C126.534 132.462 127.452 132.524 127.608 133.193C130.503 146.224 137.928 155.897 150.723 161.48C158.926 165.056 171.098 164.279 176.686 162.506C187.115 159.178 197.622 149.506 201.342 136.847C205.047 124.173 202.51 112.432 194.058 102.029ZM165.588 142.352C156.824 142.352 149.726 135.261 149.726 126.506C149.726 117.751 156.824 110.644 165.588 110.644C174.351 110.644 181.465 117.751 181.465 126.506C181.465 135.261 174.351 142.352 165.588 142.352Z" fill="#D7F000"/>
</svg>
