<svg width="127" height="168" viewBox="0 0 127 168" fill="none" xmlns="http://www.w3.org/2000/svg">
<g id="Layer_1" clip-path="url(#clip0_2015_34)">
<path id="Vector" d="M5.69317e-05 83.7218C5.69317e-05 62.2156 5.69336e-05 40.7094 0.0170651 19.2032C0.0170651 16.8574 0.0340733 14.4944 0.331716 12.1743C1.17362 5.66764 7.73027 0.0513683 14.8737 0.0599297C35.173 0.0684911 55.4722 0.0171228 75.7714 0C78.0676 0 78.0761 0.0342455 78.0761 2.31157C78.0761 12.551 78.0761 22.7818 78.0846 33.0213C78.0846 36.4972 78.6118 39.8361 80.6613 42.7727C83.3061 46.5654 86.8778 48.7571 91.4785 49.0653C94.3018 49.2536 97.1337 49.2793 99.9656 49.2879C108.538 49.3136 117.11 49.3136 125.682 49.2708C126.685 49.2708 127.111 49.5019 126.966 50.5721C126.872 51.2741 126.941 51.9933 126.941 52.7124C126.941 86.273 126.941 119.834 126.941 153.394C126.941 160.166 121.328 166.664 114.635 167.546C112.637 167.812 110.613 167.966 108.606 167.974C77.957 168 47.3168 167.991 16.6681 168C11.9908 168 7.7983 166.767 4.35415 163.42C1.7604 160.903 0.425261 157.769 0.127618 154.216C-0.0679757 151.913 -0.0169512 149.584 -0.0169512 147.273C-0.0254553 126.083 -0.0169512 104.903 -0.0169512 83.7132L5.69317e-05 83.7218ZM63.347 98.7555C72.7355 98.7555 82.1155 98.7555 91.504 98.747C92.3459 98.747 93.2048 98.6956 94.0382 98.5329C96.1813 98.122 97.644 96.3755 97.8481 94.1153C98.0351 91.9749 96.8191 89.963 94.7611 89.2695C93.8426 88.9613 92.8221 88.8158 91.8527 88.8158C79.9555 88.7815 68.0497 88.8158 56.1525 88.7901C52.4703 88.7901 48.788 88.6531 45.1057 88.6531C41.3894 88.6531 37.6646 88.6531 33.9569 88.8329C30.8529 88.987 28.6673 92.1119 29.4072 95.0142C30.0025 97.36 31.8819 98.747 34.5607 98.747C44.1618 98.7555 53.7544 98.747 63.3555 98.747L63.347 98.7555ZM63.5511 118.524C70.7455 118.524 77.9315 118.524 85.1259 118.524C87.8898 118.524 90.6536 118.524 93.4089 118.421C95.4329 118.344 96.717 117.077 97.4654 115.288C98.2307 113.481 97.8906 111.837 96.5724 110.339C95.3393 108.935 93.8001 108.498 92.0142 108.498C73.0246 108.507 54.0435 108.498 35.0539 108.516C34.2885 108.516 33.4976 108.644 32.7578 108.841C29.4667 109.706 28.1911 114.089 30.3937 116.692C31.8308 118.387 33.7102 118.532 35.7002 118.532C44.9782 118.524 54.2646 118.532 63.5426 118.532L63.5511 118.524ZM63.6531 79.1329C63.6531 79.1329 63.6531 79.1243 63.6531 79.1157C70.8476 79.1157 78.042 79.1157 85.228 79.1157C87.9238 79.1157 90.6111 79.15 93.3069 79.0387C96.3258 78.9103 98.5284 75.6655 97.678 72.7632C97.0657 70.6828 94.8206 69.1246 92.3459 69.1246C80.7208 69.1246 69.1042 69.1246 57.4792 69.1246C49.7575 69.1246 42.0272 69.116 34.3055 69.1246C31.9414 69.1246 30.3086 70.3746 29.5432 72.6605C28.8544 74.7323 29.5092 76.7271 31.3206 78.1569C32.5622 79.1414 34.0249 79.1243 35.4706 79.1329C44.8591 79.15 54.2476 79.1329 63.6361 79.1329H63.6531ZM54.1286 138.129C60.4301 138.129 66.7401 138.129 73.0416 138.129C73.5349 138.129 74.0366 138.129 74.5213 138.044C76.928 137.59 78.3567 135.441 78.1441 132.667C77.957 130.227 75.814 128.241 73.2627 128.19C69.725 128.113 66.1788 128.018 62.6411 128.01C53.8564 127.984 45.0717 128.001 36.287 128.01C35.4026 128.01 34.5096 128.061 33.6422 128.198C30.7168 128.669 29.2796 131.169 29.1861 133.207C29.0755 135.501 30.8954 137.47 33.4211 137.941C34.178 138.087 34.9689 138.121 35.7427 138.121C41.8742 138.138 47.9971 138.121 54.1286 138.121V138.129Z" fill="#D7F000"/>
<path id="Vector_2" d="M88.1704 3.96393C99.9571 15.4704 111.786 27.0112 123.607 38.5519C123.496 38.7317 123.377 38.9115 123.267 39.0913C122.918 39.1084 122.561 39.1512 122.212 39.1512C112.688 39.1512 103.163 39.1855 93.647 39.1084C92.499 39.0998 91.2574 38.7403 90.2369 38.1923C88.6466 37.3276 88.1109 35.7866 88.1109 33.9459C88.1279 25.1105 88.0769 16.2666 88.0684 7.43129C88.0684 6.17277 88.1449 4.91424 88.1704 3.96393Z" fill="#D7F000"/>
</g>
<defs>
<clipPath id="clip0_2015_34">
<rect width="127" height="168" fill="white"/>
</clipPath>
</defs>
</svg>
