<svg width="157" height="157" viewBox="0 0 157 157" fill="none" xmlns="http://www.w3.org/2000/svg">
<g id="Group 21">
<path id="Vector" d="M122.708 6.96256C123.204 6.96256 123.582 6.96256 123.965 6.96256C133.352 6.96256 142.745 6.95765 152.132 6.96256C154.71 6.96256 156.664 8.66046 156.969 11.1779C157.126 12.4979 156.704 13.6805 155.795 14.6669C153.983 16.6396 152.167 18.6074 150.355 20.585C149.196 21.851 148.057 23.1367 146.889 24.3979C146.56 24.7561 146.692 24.9769 146.982 25.2566C149.025 27.2637 151.062 29.2707 153.09 31.2974C154.028 32.2347 154.975 33.172 155.844 34.178C157.597 36.2046 157.327 39.0017 155.255 40.7045C154.558 41.2787 153.743 41.6124 152.844 41.6614C151.907 41.7154 150.964 41.6909 150.021 41.6909C141.125 41.6909 132.223 41.6909 123.327 41.6762C122.87 41.6762 122.723 41.8136 122.723 42.2699C122.732 47.4225 122.728 52.5751 122.713 57.7277C122.713 58.2282 122.914 58.3362 123.376 58.3362C126.916 58.3214 130.456 58.395 133.991 58.3116C136.49 58.2527 138.621 60.4806 138.606 62.895C138.606 63.4887 138.606 64.0825 138.606 64.6763C138.606 93.2411 138.606 121.806 138.606 150.371C138.606 150.881 138.591 151.397 138.621 151.902C138.773 154.557 136.848 156.986 133.564 156.996C131.315 157.005 129.061 156.996 126.813 156.996C117.135 156.996 107.463 156.996 97.7857 156.996C97.0001 156.996 96.9903 156.996 96.9903 156.186C96.9706 148.148 96.9363 140.115 96.9363 132.077C96.9314 109.666 96.9363 87.2543 96.9363 64.8431C96.9363 64.107 96.9559 63.3709 97.0001 62.6349C97.1474 60.2205 99.0082 58.3705 101.424 58.3411C105.268 58.292 109.113 58.2969 112.962 58.3116C113.468 58.3116 113.546 58.1251 113.536 57.7129C113.517 56.8542 113.527 55.9954 113.527 55.1367C113.527 38.8398 113.522 22.543 113.541 6.24611C113.541 5.25485 113.63 4.23415 113.87 3.27725C114.391 1.21131 116.286 -0.123452 118.358 0.00904223C120.788 0.161166 122.536 1.93267 122.693 4.22924C122.752 5.11745 122.703 6.01547 122.703 6.95765L122.708 6.96256Z" fill="#D7F000"/>
<path id="Vector_2" d="M87.8288 156.971H51.4912V156.299C51.4912 137.244 51.4912 118.189 51.4912 99.1346C51.4912 96.7791 52.92 94.8261 55.0312 94.355C55.586 94.2323 56.1654 94.2078 56.7349 94.2078C65.3467 94.1979 73.9536 94.2519 82.5655 94.1734C86.1153 94.1391 87.8386 96.946 87.8386 99.5125C87.819 118.381 87.8288 137.254 87.8288 156.122V156.971Z" fill="#D7F000"/>
<path id="Vector_3" d="M42.1673 156.996C41.8825 156.996 41.6812 156.996 41.4799 156.996C29.9026 156.996 18.3203 156.996 6.74295 156.996C3.95417 156.996 2.16209 155.734 1.50908 153.286C1.37652 152.78 1.33233 152.236 1.33233 151.711C1.32251 143.226 1.32742 134.741 1.33233 126.252C1.33233 124.947 1.29305 123.641 1.98534 122.439C2.93293 120.79 4.38624 120.039 6.22251 119.971C7.38614 119.926 8.55468 119.961 9.7183 119.961C18.9242 119.961 28.1301 119.951 37.336 119.951C39.6731 119.951 41.6518 121.502 42.0986 123.681C42.1428 123.896 42.1575 124.127 42.1575 124.348C42.1575 135.041 42.1575 145.738 42.1575 156.431C42.1575 156.593 42.1575 156.755 42.1575 156.996H42.1673Z" fill="#D7F000"/>
<path id="Vector_4" d="M74.695 32.7254C72.2253 37.559 69.5741 42.0835 66.6429 46.446C60.6922 55.3084 53.8037 63.3759 45.9824 70.6483C38.2543 77.8374 29.8143 84.0499 20.6526 89.2859C15.949 91.9751 11.0932 94.3551 6.1048 96.4603C3.58607 97.5251 0.492879 95.6997 0.0608144 92.8927C-0.268144 90.7728 0.861115 88.8835 2.93306 87.9315C5.97224 86.533 9.04088 85.1786 12.0113 83.6377C24.9291 76.9443 36.3149 68.2045 46.2475 57.5853C53.244 50.1018 59.2782 41.9068 64.2567 32.9462C64.9588 31.6802 65.6413 30.3994 66.3336 29.1284C66.4269 28.9616 66.5005 28.7849 66.6282 28.5101C64.6495 28.9174 62.7985 29.3002 60.9475 29.678C60.2896 29.8105 59.6218 29.9283 58.959 30.0461C56.7447 30.4534 54.6629 29.1431 53.8774 26.8466C53.2293 24.9475 54.1769 22.5184 56.072 21.6596C57.1129 21.1886 58.2815 20.9923 59.4107 20.7371C61.6791 20.2218 63.9523 19.7409 66.2305 19.2551C68.6461 18.7349 71.0568 18.205 73.4724 17.7142C75.7604 17.253 77.6212 18.1117 78.6916 20.1826C80.0516 22.8128 81.338 25.4775 82.6538 28.1274C83.788 30.4141 84.9172 32.7009 86.0563 34.9827C86.7388 36.3567 87.0236 37.7406 86.3116 39.2078C85.5015 40.8812 84.1758 41.8823 82.3396 41.951C80.5573 42.0197 79.1138 41.1854 78.2497 39.6004C77.2383 37.7357 76.3398 35.812 75.3824 33.913C75.1909 33.54 74.965 33.1818 74.6901 32.7058L74.695 32.7254Z" fill="#D7F000"/>
</g>
</svg>
