<svg width="44" height="44" viewBox="0 0 44 44" fill="none" xmlns="http://www.w3.org/2000/svg">
<g id="Group 24">
<path id="Vector" d="M21.6166 0.00135226C24.7295 0.00135226 27.8424 -0.00135226 30.9553 0.00135226C32.3617 0.00270453 33.741 0.175794 35.0797 0.635564C36.8201 1.23191 38.3481 2.17173 39.6477 3.4672C40.8728 4.6883 41.7964 6.10817 42.3968 7.73765C42.67 8.47734 42.8904 9.23325 42.9945 10.0108C43.0919 10.7383 43.1487 11.4767 43.15 12.2096C43.1622 18.4692 43.1568 24.7288 43.1568 30.9885C43.1568 32.6572 42.8918 34.2758 42.2454 35.8201C41.5517 37.4766 40.5375 38.9087 39.2001 40.1108C37.7829 41.3833 36.1521 42.2582 34.3157 42.7518C33.4949 42.9722 32.6605 43.1115 31.8073 43.1264C31.1446 43.1372 30.482 43.1561 29.8194 43.1561C23.9195 43.1588 18.0196 43.1602 12.1197 43.1561C10.7985 43.1561 9.49897 42.9925 8.23866 42.5774C6.65111 42.054 5.22582 41.2481 3.97768 40.1298C2.98918 39.244 2.167 38.2271 1.51927 37.0709C0.77958 35.7498 0.302231 34.3353 0.115618 32.8329C0.0398918 32.2271 0.00338066 31.6119 0.00338066 31.0006C-0.00202839 24.7248 0.000676131 18.4476 0.000676131 12.1717C0.000676131 10.3637 0.317106 8.62203 1.07708 6.97227C2.17241 4.59499 3.86815 2.76808 6.14806 1.49019C7.453 0.75862 8.858 0.297498 10.3441 0.117647C10.9783 0.0405679 11.622 0.00946584 12.2616 0.00676131C15.38 -0.00405679 18.4983 0.00135226 21.6166 0.00135226ZM33.411 21.6944C33.5233 15.3211 28.3211 9.76604 21.5936 9.74306C15.2812 9.72007 9.79782 14.8438 9.74373 21.5172C9.69234 27.8607 14.8323 33.3617 21.499 33.4158C27.9168 33.4685 33.3718 28.2812 33.411 21.6944ZM37.7085 9.05205C37.7599 7.13183 36.171 5.45097 34.1399 5.44421C32.2603 5.43745 30.5388 6.88437 30.5267 9.02095C30.5158 11.0466 32.0831 12.6112 34.0926 12.6328C36.1534 12.6558 37.7315 11.0061 37.7085 9.05205Z" fill="#BCBCBC"/>
<path id="Vector_2" d="M30.8851 21.6077C30.7201 26.8153 26.7675 30.7382 21.5694 30.8856C16.3807 30.726 12.3997 26.8018 12.2739 21.5023C12.4849 16.3136 16.3794 12.4367 21.591 12.2744C26.7769 12.4407 30.7377 16.3407 30.8851 21.6091V21.6077Z" fill="#BCBCBC"/>
</g>
</svg>
