<svg width="34" height="34" viewBox="0 0 34 34" fill="none" xmlns="http://www.w3.org/2000/svg">
<path id="Vector" d="M34 17C33.951 26.381 26.4422 33.9868 17.0203 34C7.65574 34.0143 0.0119557 26.5136 1.41471e-05 17.0072C-0.0119274 7.6083 7.53752 0.02755 16.9594 7.48358e-05C26.3216 -0.0274003 33.9391 7.51393 34 17ZM23.2669 16.036C23.2669 15.9046 23.2657 15.7816 23.2669 15.6585C23.2801 14.7005 23.1511 13.752 23.0388 12.8047C22.9517 12.0712 22.8024 11.3437 22.6854 10.6138C22.6699 10.5171 22.6281 10.5004 22.5349 10.5039C21.1043 10.5625 19.6725 10.6401 18.2419 10.6664C16.9785 10.6903 15.7151 10.6736 14.4517 10.6425C13.4378 10.6174 12.4252 10.5446 11.4114 10.4992C11.3767 10.498 11.3122 10.547 11.3063 10.5804C11.2084 11.1227 11.0985 11.6639 11.028 12.2098C10.9241 13.003 10.8382 13.7986 10.7665 14.5954C10.7235 15.0696 10.7223 15.5474 10.702 16.0348H23.2681L23.2669 16.036ZM10.7367 17.9652C10.7367 18.2866 10.7188 18.5996 10.7402 18.9101C10.7808 19.48 10.8549 20.0474 10.8967 20.6172C10.9659 21.5549 11.12 22.4807 11.3063 23.4005C11.3146 23.44 11.3791 23.4973 11.4173 23.4961C11.8998 23.4818 12.381 23.4567 12.8635 23.44C14.146 23.3958 15.4273 23.3372 16.7098 23.3157C18.6599 23.2823 20.6075 23.4017 22.554 23.5045C22.6328 23.5081 22.6734 23.4866 22.6866 23.4053C22.7523 23.0135 22.8346 22.6241 22.886 22.2311C23.0054 21.31 23.1224 20.3878 23.2156 19.4632C23.2657 18.9699 23.2634 18.4729 23.2848 17.9664H10.7367V17.9652ZM11.7804 25.3835C11.9034 25.7849 12.0096 26.1731 12.141 26.5506C12.5434 27.6998 13.0832 28.7809 13.7388 29.807C14.1615 30.4688 14.6702 31.041 15.3043 31.5093C16.0124 32.0337 16.7934 32.2117 17.6425 32.0194C18.2431 31.8832 18.7375 31.5308 19.171 31.1031C19.8899 30.396 20.4702 29.586 20.9288 28.6901C21.3754 27.8169 21.7217 26.903 22.0298 25.9737C22.0919 25.7873 22.1289 25.5938 22.1803 25.3919C18.7088 25.1709 15.2625 25.1912 11.7792 25.3847L11.7804 25.3835ZM22.1874 8.61294C22.1528 8.47317 22.1241 8.35372 22.0943 8.23426C22.0752 8.15661 22.0573 8.07896 22.0334 8.00371C21.6381 6.76852 21.1151 5.59187 20.432 4.48808C20.0702 3.90274 19.6916 3.32935 19.1602 2.88019C18.6026 2.40953 18.033 1.96276 17.2532 1.92811C16.883 1.91139 16.5164 1.90183 16.1641 2.03085C15.7497 2.18136 15.3712 2.40116 15.0404 2.69264C14.2905 3.35443 13.6994 4.14524 13.2157 5.01608C12.6784 5.98369 12.2938 7.01699 11.9451 8.06344C11.8878 8.23545 11.8508 8.41464 11.7983 8.61174C15.2649 8.81721 18.716 8.81243 22.1874 8.61174V8.61294ZM32.0332 16.0372C32.0332 15.9464 32.038 15.8628 32.0332 15.7804C31.9819 15.0158 31.8613 14.2621 31.6881 13.5143C31.3884 12.2182 30.9155 10.9913 30.2898 9.81946C30.2169 9.68327 30.1405 9.66894 30.0079 9.68925C29.5267 9.76331 29.0454 9.83379 28.5618 9.89232C27.7235 9.99386 26.8852 10.0906 26.0457 10.1814C25.5824 10.2316 25.1167 10.2686 24.6533 10.3128C24.6354 10.314 24.6187 10.326 24.5793 10.3415C24.9352 12.2229 25.1286 14.1235 25.2086 16.0372H32.0356H32.0332ZM8.77825 17.9664H1.95007C1.95007 18.0513 1.94649 18.1253 1.95007 18.1994C2.00142 19.1311 2.16263 20.0462 2.40624 20.9445C2.71313 22.0793 3.14303 23.1676 3.70906 24.2021C3.76996 24.312 3.83086 24.3311 3.94192 24.3168C4.60109 24.2272 5.26146 24.1436 5.92183 24.0599C6.54279 23.9811 7.16375 23.9035 7.78471 23.8294C8.31611 23.7661 8.84751 23.7064 9.40399 23.6418C9.05171 21.7747 8.85468 19.8801 8.77825 17.9676V17.9664ZM9.39921 10.3582C8.8905 10.2997 8.41284 10.2447 7.93517 10.1898C7.07658 10.0918 6.21798 9.99864 5.36058 9.89352C4.88769 9.83618 4.41719 9.75734 3.9455 9.68925C3.8643 9.6773 3.79146 9.65341 3.73294 9.75973C3.13945 10.8241 2.69283 11.9494 2.3931 13.1272C2.22831 13.7759 2.12561 14.4401 2.01575 15.1007C1.9644 15.4065 1.96082 15.7194 1.93455 16.0432H2.13994C4.25359 16.0432 6.36725 16.0432 8.4809 16.0432C8.54539 16.0432 8.60987 16.042 8.67436 16.0456C8.74839 16.0491 8.77944 16.0229 8.78422 15.944C8.82124 15.3288 8.84632 14.7124 8.90602 14.0984C8.98603 13.2634 9.08395 12.4284 9.19023 11.5958C9.24277 11.1789 9.32995 10.7656 9.4004 10.3558L9.39921 10.3582ZM24.5865 23.6478C25.4451 23.7374 26.2714 23.8103 27.0942 23.9118C28.0901 24.0349 29.0825 24.1794 30.0772 24.318C30.162 24.3299 30.2133 24.3156 30.2587 24.2344C30.648 23.5331 30.9668 22.8009 31.2355 22.0471C31.6248 20.9564 31.8708 19.8336 31.9986 18.6844C32.0249 18.4455 32.0296 18.2042 32.044 17.9557H31.8398C29.8706 17.9557 27.9003 17.9557 25.9311 17.9557C25.7269 17.9557 25.5227 17.9569 25.3197 17.9533C25.2409 17.9521 25.2062 17.9736 25.2003 18.0608C25.1656 18.6617 25.1406 19.2637 25.0832 19.8622C25.002 20.7128 24.9029 21.5621 24.7966 22.4102C24.7453 22.8224 24.6605 23.2309 24.5889 23.6466L24.5865 23.6478ZM4.91874 26.0883C6.90462 28.6865 9.43742 30.4557 12.5374 31.4257C12.5255 31.366 12.5028 31.317 12.473 31.2752C11.9129 30.5047 11.4269 29.6912 11.0412 28.8203C10.5862 27.793 10.185 26.7465 9.9115 25.6547C9.88762 25.5591 9.8506 25.5125 9.73716 25.5329C9.56161 25.5651 9.38249 25.5782 9.20456 25.5986C8.04981 25.7288 6.89507 25.8578 5.74151 25.988C5.47641 26.0179 5.2125 26.0513 4.91993 26.0859L4.91874 26.0883ZM29.0681 26.0883C28.858 26.0668 28.6848 26.0537 28.5129 26.031C27.7355 25.9283 26.9593 25.8124 26.1807 25.7216C25.5346 25.6463 24.885 25.6021 24.2378 25.534C24.1303 25.5233 24.0981 25.5556 24.0778 25.6475C23.8628 26.5841 23.5332 27.4824 23.1511 28.3628C22.7105 29.377 22.1671 30.335 21.5426 31.2477C21.5044 31.3038 21.4757 31.3683 21.4244 31.4591C24.5495 30.4557 27.0811 28.6865 29.0681 26.0895V26.0883ZM4.92113 7.91292C5.12652 7.93323 5.29967 7.94756 5.47163 7.96906C6.26455 8.0718 7.05628 8.18648 7.85039 8.27965C8.48687 8.35372 9.12694 8.39911 9.76343 8.46601C9.87329 8.47795 9.89001 8.42061 9.90792 8.34535C10.105 7.51274 10.3904 6.70879 10.7188 5.91918C11.1821 4.80464 11.7589 3.75223 12.4467 2.76193C12.4849 2.70697 12.5124 2.64605 12.5458 2.58752C9.43623 3.54437 6.90581 5.31353 4.91993 7.91411L4.92113 7.91292ZM21.4661 2.55765L21.4327 2.58513C21.4697 2.64725 21.5056 2.71175 21.5462 2.77268C21.7778 3.12507 22.0274 3.46911 22.2412 3.83226C23.0759 5.24544 23.6455 6.76732 24.0754 8.34535C24.1005 8.43853 24.1375 8.48154 24.239 8.46601C24.4157 8.43973 24.5936 8.42181 24.7716 8.4015C25.8523 8.28204 26.9342 8.16378 28.0149 8.04193C28.3576 8.00371 28.7003 7.95354 29.0598 7.90695C27.0811 5.31711 24.5471 3.54795 21.4638 2.55885L21.4661 2.55765Z" fill="#D7F000"/>
</svg>
