<svg width="84" height="61" viewBox="0 0 84 61" fill="none" xmlns="http://www.w3.org/2000/svg">
<g id="Layer_1" clip-path="url(#clip0_2032_33)">
<path id="Vector" d="M82.3599 20.5691L65.4386 52.6398C63.0212 57.2208 58.2763 60.0876 53.1085 60.0876H0.196338C0.0468567 60.0876 -0.047103 59.929 0.0212313 59.7962L4.83026 50.5615C4.83026 50.5615 18.7448 50.4887 19.4965 50.4972C25.9285 50.5615 32.3605 50.6301 38.7924 50.6815C40.2616 50.6944 40.3385 50.6086 40.757 49.2031C40.9535 48.5517 41.1542 47.909 41.3849 47.2662C41.4532 47.0819 41.718 47.099 41.7607 47.2919C42.5978 51.0757 44.7418 53.8826 48.4404 55.4981C50.8107 56.5351 54.3257 56.3123 55.9401 55.7981C58.9553 54.8296 61.9919 52.0271 63.0639 48.3546C64.1359 44.6779 63.4013 41.2668 60.9627 38.2543C59.1603 36.0217 54.0951 33.5577 52.5276 33.0349C52.3739 32.9835 52.344 32.7778 52.4807 32.6835C52.5362 32.6449 52.5917 32.6149 52.6472 32.5935C54.1762 31.9936 55.7052 31.3765 57.2513 30.8237C57.7509 30.6437 57.8833 30.3523 57.9004 29.8767C57.973 27.5541 57.042 25.5871 55.6411 23.8431C54.6716 22.6346 46.9755 12.2643 41.8205 8.75474C41.5642 8.58333 41.1841 8.69903 41.2567 9.07185C41.3592 9.59893 41.4874 10.0746 41.6753 10.5674C41.9444 11.2787 42.2305 11.8701 42.4782 12.5343C42.7259 13.1942 42.5722 13.4428 41.8803 13.5713C41.4404 13.6528 41.0389 13.7213 40.5563 13.777C39.8687 13.8542 37.3062 12.6843 36.1018 12.1187C35.8028 11.9772 35.6277 11.3987 35.5636 10.9916C35.491 10.5203 35.3928 10.2331 34.8589 10.2546C34.2567 10.2803 34.0816 9.80462 34.0646 9.36324C34.0347 8.41192 33.9065 7.43489 34.6283 6.59926C34.8162 6.38072 34.8846 5.87934 34.765 5.61795C34.4532 4.94516 34.0517 4.30238 33.599 3.7153C33.1591 3.13679 31.8608 3.35534 31.8736 4.04526C31.8907 4.94088 31.9163 5.84078 31.9974 6.73211C32.0188 6.92066 32.2708 7.18634 32.4672 7.24634C32.9242 7.38775 33.1506 7.61915 33.0951 8.10767C33.0054 8.89187 32.9242 9.67607 32.8345 10.4731C32.826 10.5674 32.7448 10.6445 32.6509 10.6488C32.5398 10.6574 32.4459 10.6617 32.3562 10.636C31.1518 10.276 31.0109 10.3017 30.3403 11.3602C30.0414 11.8401 29.6613 12.0287 29.1359 12.2086C28.7217 12.3458 28.1963 12.8814 28.1664 13.2799C28.1109 13.9827 29.0975 14.8312 29.8449 14.317C30.9596 13.5456 31.5789 14.1713 32.3818 14.6598C32.7577 14.8869 34.2952 15.8511 34.2866 16.1425C34.2866 16.2282 34.0347 16.5282 33.851 16.6781C33.2488 17.1624 33.0652 18.7265 33.5435 19.3821C34.9315 21.2891 36.2897 23.2174 37.7076 25.0986C38.4209 26.0414 38.5148 27.0013 37.9724 27.9997C37.7461 28.4111 37.3916 28.8225 36.9944 29.0539C35.3757 30.0052 33.757 30.9694 32.0615 31.7665C31.1347 32.2036 30.0755 32.3535 29.0292 32.6278C28.9523 32.6492 28.8754 32.6235 28.8242 32.5592C28.4739 32.1179 27.0133 30.3909 26.6076 29.6624C25.3647 27.4341 23.635 25.5914 21.7686 23.8773C21.1878 23.3417 20.5173 23.0889 19.7101 23.1274C19.5606 23.136 19.4581 22.9732 19.5307 22.8403L31.5148 0.102846C31.549 0.0385671 31.6131 0 31.6857 0L70.034 0.0214262C80.5447 0.0257114 87.2714 11.2487 82.3556 20.5691H82.3599Z" fill="#D7F000"/>
<path id="Vector_2" d="M52.7412 49.9488C55.2745 49.9488 57.3282 47.8883 57.3282 45.3465C57.3282 42.8047 55.2745 40.7441 52.7412 40.7441C50.2079 40.7441 48.1543 42.8047 48.1543 45.3465C48.1543 47.8883 50.2079 49.9488 52.7412 49.9488Z" fill="#D7F000"/>
</g>
<defs>
<clipPath id="clip0_2032_33">
<rect width="84" height="60.0876" fill="white"/>
</clipPath>
</defs>
</svg>
