<svg width="135" height="163" viewBox="0 0 135 163" fill="none" xmlns="http://www.w3.org/2000/svg">
<g id="Group 18">
<path id="Vector" d="M52.8266 36.3473C51.2087 35.0223 49.5755 33.8349 48.1153 32.4641C41.9234 26.6596 37.4817 19.7288 35.1159 11.5495C34.4698 9.31742 34.1136 6.99358 34.6478 4.63407C35.2075 2.14205 37.0951 0.378789 39.6339 0.0628282C41.2925 -0.141017 42.9003 0.169847 44.4368 0.725326C46.4414 1.45407 48.4155 2.28474 50.3743 3.1307C52.9589 4.25185 55.5537 5.34243 58.3214 5.93358C60.3565 6.36675 62.4222 6.45339 64.4319 5.94377C69.0007 4.78695 73.5391 3.49253 78.1079 2.31023C80.6671 1.64773 83.2314 0.964845 85.8363 0.56225C87.6374 0.281962 89.5097 0.42975 91.3464 0.455231C92.1452 0.465423 92.6591 1.06677 92.7761 1.78532C92.944 2.84022 93.0915 3.94099 92.9643 4.9857C92.4098 9.4754 90.7613 13.6338 88.8279 17.6802C86.4774 22.603 83.6384 27.2202 80.026 31.3174C78.922 32.5711 77.6856 33.7177 76.5002 34.9C75.971 35.43 75.9609 35.4657 76.6172 35.746C82.0612 38.0953 87.0014 41.2855 91.6466 44.9445C102.916 53.8118 112.125 64.5239 119.843 76.5661C123.603 82.4317 126.814 88.5929 129.429 95.0549C131.403 99.937 132.929 104.957 133.936 110.129C134.806 114.609 135.219 119.124 134.883 123.68C134.059 134.871 129.408 144.024 120.301 150.756C115.758 154.114 110.7 156.443 105.374 158.227C100.784 159.761 96.073 160.78 91.3006 161.519C86.1263 162.319 80.9164 162.711 75.681 162.905C69.3976 163.139 63.1396 162.854 56.8714 162.518C52.4501 162.283 48.0542 161.84 43.7041 161.009C40.5293 160.403 37.324 159.862 34.2154 159.001C28.3033 157.365 22.6304 155.103 17.451 151.719C12.2869 148.35 8.01313 144.126 4.95536 138.739C2.82356 134.983 1.47529 130.952 0.701945 126.692C-0.315618 121.106 -0.157895 115.562 0.732472 109.981C1.51599 105.064 2.78795 100.283 4.45166 95.6052C6.86329 88.8376 10.0126 82.4164 13.681 76.2399C18.5347 68.0759 24.2331 60.5438 30.7353 53.6283C35.0905 48.996 39.8069 44.7611 45.0117 41.102C47.4182 39.4101 49.8655 37.7692 52.5773 36.5767C52.6841 36.5308 52.7554 36.4187 52.8418 36.3371L52.8266 36.3473ZM62.8547 118.512C62.6766 118.502 62.5697 118.517 62.4731 118.492C58.9421 117.468 56.4644 115.307 55.2636 111.775C55.0957 111.276 54.9533 110.756 54.7142 110.292C53.9764 108.865 52.1194 108.019 50.3743 108.264C48.9497 108.468 47.6218 109.773 47.2503 111.261C46.9654 112.392 47.2351 113.462 47.5963 114.502C50.0537 121.545 55.3094 125.295 62.3154 126.941C62.758 127.043 62.9157 127.166 62.9106 127.619C62.8852 129.082 62.8801 130.549 62.9106 132.012C62.9157 132.404 62.9819 132.822 63.1396 133.174C63.9485 134.998 65.1442 135.595 67.2607 135.569C69.1483 135.549 70.5983 134.086 70.7764 132.506C70.9392 131.059 70.9341 129.591 70.9494 128.134C70.9545 127.609 71.0918 127.375 71.6413 127.319C74.1191 127.079 76.5256 126.529 78.7948 125.479C85.6684 122.299 89.0467 115.964 87.4034 108.29C86.513 104.121 83.6943 101.384 80.0159 99.4783C77.3702 98.1074 74.5159 97.3022 71.6362 96.6041C71.0715 96.4665 70.9087 96.2066 70.9087 95.6409C70.9341 91.034 70.9239 86.4271 70.929 81.8202C70.929 81.6826 70.9697 81.545 71.0053 81.3411C71.7227 81.5246 72.3994 81.6622 73.0557 81.8762C75.9456 82.8292 78.2351 84.4039 79.1204 87.5584C79.5478 89.0924 80.7485 90.5855 83.0991 90.5957C85.5005 90.6059 87.4441 88.5267 87.0727 86.1366C86.9353 85.2448 86.6962 84.3377 86.3247 83.5172C83.4807 77.1572 78.2707 74.176 71.6159 73.3402C71.0715 73.274 70.8781 73.1414 70.9087 72.586C70.9697 71.5056 71.0104 70.4201 70.9952 69.3397C70.9494 66.7764 69.6011 64.9316 67.159 64.7023C64.961 64.4933 62.8954 66.3024 62.8954 68.5091C62.8954 69.6965 62.8954 70.889 62.8954 72.0764C62.8954 72.4688 62.8954 72.8663 62.8954 73.2434C59.4 73.702 56.9782 74.5021 54.5666 76.0157C49.2244 79.3689 46.996 84.2663 47.6777 90.4581C48.0186 93.5209 49.5348 96.0588 51.9362 98.0361C53.9764 99.7178 56.3066 100.854 58.7844 101.705C59.9648 102.108 61.1655 102.444 62.3662 102.781C62.7885 102.898 62.9055 103.117 62.9055 103.545C62.8903 108.32 62.8954 113.1 62.8903 117.875C62.8903 118.079 62.8648 118.278 62.8496 118.512H62.8547Z" fill="#D7F000"/>
<path id="Vector_2" d="M70.9496 112.02C70.9496 109.813 70.9598 107.607 70.9394 105.4C70.9394 104.9 71.1277 104.778 71.5449 104.931C73.2035 105.558 74.8927 106.118 76.5055 106.852C80.708 108.763 80.6063 114.028 77.6604 116.617C75.8644 118.196 73.6767 118.874 71.3719 119.251C70.8835 119.333 70.9242 119.012 70.9242 118.706C70.9242 116.479 70.9242 114.247 70.9242 112.02H70.9445H70.9496Z" fill="#D7F000"/>
<path id="Vector_3" d="M62.8546 81.438V94.4484C62.4272 94.3108 62.0609 94.2293 61.7251 94.0815C60.5396 93.5719 59.3338 93.1081 58.1992 92.5068C55.9199 91.3041 55.3755 89.4185 55.8181 86.9673C56.0267 85.8155 56.6016 84.8829 57.431 84.0778C58.9471 82.6203 60.7737 81.8253 62.8597 81.4329L62.8546 81.438Z" fill="#D7F000"/>
</g>
</svg>
