<svg width="165" height="163" viewBox="0 0 165 163" fill="none" xmlns="http://www.w3.org/2000/svg">
<g id="Layer_1" clip-path="url(#clip0_2015_30)">
<path id="Vector" d="M54.52 162.05C45.29 162.09 38.49 160.5 31.91 157.61C19.63 152.22 10.73 143.36 4.81 131.48C1.63 125.1 0 118.21 0 111.02C0 103.42 1.98 96.31 5.38 89.56C7.89 84.58 10.3 79.55 12.92 74.63C16.1 68.64 19.35 62.69 22.73 56.81C28.53 46.75 34.42 36.75 40.34 26.76C41.79 24.3 43.26 21.86 45.77 20.18C51.48 16.34 58.72 17.11 63.05 22.47C65.98 26.09 68.6 29.96 71.23 33.8C74.93 39.18 78.58 44.6 82.14 50.08C87.07 57.66 91.38 65.59 95.27 73.76C99.74 83.14 103.44 92.81 105.4 103.03C106.72 109.93 106.45 116.88 104.54 123.69C102.63 130.5 99.39 136.62 94.96 142.15C89.53 148.93 82.82 153.99 74.91 157.44C67.77 160.56 60.24 161.97 54.51 162.05H54.52Z" fill="#D7F000"/>
<path id="Vector_2" d="M164.02 50.12C163.6 60.82 158.68 68.41 150.11 73.69C144.22 77.32 137.63 78.72 130.82 77.63C124.47 76.61 118.81 73.92 114.26 69.1C110.36 64.96 107.62 60.26 106.65 54.64C105.81 49.75 106.25 44.99 108.4 40.39C113.58 29.33 119.72 18.81 126.01 8.37002C127.02 6.70002 128.04 5.02002 129.08 3.37002C131.98 -1.19998 138.28 -1.04998 141.3 3.34002C146.18 10.44 151.26 17.4 155.38 24.98C158.8 31.28 161.69 37.82 163.27 44.86C163.69 46.71 163.81 48.63 164.01 50.12H164.02Z" fill="#D7F000"/>
</g>
<defs>
<clipPath id="clip0_2015_30">
<rect width="164.02" height="162.06" fill="white"/>
</clipPath>
</defs>
</svg>
