<svg width="43" height="43" viewBox="0 0 43 43" fill="none" xmlns="http://www.w3.org/2000/svg">
<g id="Group 25">
<path id="Vector" d="M42.9959 21.5104C42.9959 26.6991 43.008 31.8879 42.9905 37.0766C42.9838 39.081 42.1392 40.6934 40.5254 41.8895C39.8505 42.3893 39.0907 42.7166 38.2677 42.8688C37.8245 42.951 37.3678 42.9901 36.9166 42.9901C26.6007 42.9968 16.2834 43.0116 5.9675 42.9833C3.40401 42.9766 1.56256 41.7239 0.479509 39.3908C0.21683 38.8237 0.0834691 38.2162 0.0417098 37.5925C0.0215036 37.28 0.00668579 36.9675 0.00668579 36.655C0.00533872 26.3947 -0.0135203 16.1344 0.0188095 5.87412C0.028239 3.49931 1.18942 1.73605 3.29759 0.622064C4.14086 0.176198 5.05822 0.00782003 6.00387 0.00782003C16.3535 0.00377895 26.703 -0.0123854 37.0526 0.0185962C39.6296 0.0266784 41.4791 1.29827 42.5419 3.65691C42.8639 4.37218 42.9959 5.13999 42.9959 5.92665C42.9959 11.1208 42.9959 16.3163 42.9959 21.5104ZM22.3048 27.4454C23.0821 27.9734 23.8445 28.492 24.607 29.0093C25.9406 29.9131 27.2796 30.8089 28.6051 31.7235C29.2948 32.2004 30.5355 32.0266 30.7779 30.8305C30.9611 29.928 31.174 29.0308 31.376 28.1324C31.6091 27.0979 31.8475 26.0633 32.0819 25.0288C32.3069 24.0374 32.5305 23.046 32.7554 22.0546C32.9791 21.0686 33.2027 20.0839 33.4249 19.0979C33.693 17.9044 33.9597 16.7109 34.2278 15.5175C34.446 14.5476 34.6642 13.5778 34.8852 12.6092C34.9929 12.1391 34.9539 11.7081 34.5673 11.3646C34.1173 10.9645 33.6001 10.9524 33.072 11.1396C31.7249 11.6178 30.3859 12.1162 29.0416 12.6012C27.9073 13.0107 26.7704 13.4134 25.6361 13.8216C23.7758 14.4897 21.9169 15.1592 20.0579 15.83C18.7135 16.3149 17.3718 16.8066 16.0275 17.2915C14.8824 17.7037 13.7347 18.1078 12.5897 18.5186C11.5552 18.8904 10.5206 19.2662 9.4874 19.6421C9.15737 19.762 8.82464 19.8778 8.50269 20.0179C8.20768 20.1472 8.07298 20.4004 8.06759 20.717C8.0595 21.1507 8.30063 21.4403 8.77615 21.5683C9.70832 21.8216 10.6418 22.0681 11.574 22.3226C12.587 22.5988 13.5933 22.8965 14.6117 23.1524C14.8851 23.2211 14.9942 23.3572 15.0724 23.5996C15.3256 24.3863 15.5937 25.1676 15.8591 25.9502C16.2942 27.2353 16.7279 28.5203 17.1711 29.8027C17.2412 30.0061 17.3287 30.2162 17.4594 30.3832C17.8541 30.8816 18.6085 30.9423 19.123 30.4533C19.9838 29.637 20.8459 28.822 21.7081 28.0071C21.9061 27.8199 22.1055 27.6326 22.3048 27.4454Z" fill="#BCBCBC"/>
<path id="Vector_2" d="M17 22.9399C17.0028 22.6256 17.1524 22.4758 17.3533 22.3594C18 21.9825 18.6468 21.6057 19.2936 21.2274C22.2524 19.4945 25.2112 17.7616 28.17 16.0287C29.2057 15.4219 30.2399 14.8137 31.277 14.207C31.3839 14.1444 31.4992 14.0935 31.6089 14.0353C31.7528 13.9582 31.8597 14.0149 31.9466 14.1328C32.0377 14.2565 32.0035 14.3743 31.9095 14.4762C31.8411 14.5504 31.7628 14.6158 31.6844 14.6813C28.9535 16.9613 26.2226 19.2398 23.4903 21.5184C22.3678 22.4554 21.2438 23.391 20.1212 24.3265C20.107 24.3382 20.0942 24.3513 20.0799 24.3615C19.7551 24.5928 19.6041 24.8867 19.5671 25.3116C19.4659 26.4712 19.3035 27.6265 19.1653 28.7832C19.1611 28.8138 19.1625 28.8472 19.1482 28.8705C19.1183 28.9171 19.0799 28.9563 19.0443 29C19.0044 28.9607 18.9445 28.9287 18.9274 28.8821C18.8491 28.6683 18.7836 28.4486 18.7123 28.2303C18.171 26.5774 17.6282 24.9245 17.0883 23.2717C17.047 23.1465 17.0199 23.017 17 22.9443V22.9399Z" fill="#BCBCBC"/>
</g>
</svg>
