<svg width="157" height="157" viewBox="0 0 157 157" fill="none" xmlns="http://www.w3.org/2000/svg">
<path id="Vector" d="M78.4587 157C35.6453 156.695 0.448658 122.88 0.00407997 79.2523C-0.435142 35.3298 34.6437 0.0697043 78.4319 0.000105006C121.54 -0.0694943 156.785 34.4678 156.999 78.1333C157.208 121.66 122.359 156.668 78.4587 157ZM71.324 57.3178C71.324 57.3178 71.3455 57.3178 71.3562 57.3178C71.3562 64.2563 71.3562 71.1895 71.3562 78.128C71.3562 79.7555 71.5597 81.3617 72.6631 82.6573C73.5576 83.7066 74.5432 84.681 75.5181 85.6608C81.8493 92.0104 88.1966 98.3439 94.5171 104.71C96.2365 106.444 98.2665 107.178 100.688 106.996C103.334 106.792 105.99 104.784 106.697 102.279C107.538 99.2969 106.96 96.6682 104.7 94.4303C98.6415 88.4394 92.6263 82.4003 86.5629 76.4148C85.8826 75.7455 85.5988 75.071 85.5988 74.1287C85.6202 62.0827 85.6148 50.042 85.6148 37.996C85.6148 36.9466 85.6791 35.8973 85.588 34.8533C85.1006 29.3068 79.0801 26.9779 74.7468 29.5048C72.2828 30.945 71.3187 33.2632 71.3187 36.0418C71.3187 43.1356 71.3187 50.224 71.3187 57.3178H71.324Z" fill="#D7F000"/>
</svg>
